<mxfile host="Electron" modified="2024-03-12T16:16:00.307Z" agent="Mozilla/5.0 (Macintosh; Intel Mac OS X 10_15_7) AppleWebKit/537.36 (KHTML, like Gecko) draw.io/24.0.4 Chrome/120.0.6099.109 Electron/28.1.0 Safari/537.36" etag="YDH9rix6KHnz6TjrjhUz" version="24.0.4" type="device">
  <diagram name="Page-1" id="ZRe_wIOORr0k_d4isBBX">
    <mxGraphModel dx="2219" dy="1840" grid="1" gridSize="10" guides="1" tooltips="1" connect="1" arrows="1" fold="1" page="1" pageScale="1" pageWidth="1169" pageHeight="827" math="0" shadow="0">
      <root>
        <mxCell id="0" />
        <mxCell id="1" parent="0" />
        <UserObject label="&lt;i&gt;&lt;font color=&quot;#000000&quot;&gt;Pat&lt;/font&gt;&lt;/i&gt;" id="I-3xDNqU13IutiKupr62-4">
          <mxCell style="ellipse;whiteSpace=wrap;html=1;fontSize=16;fillColor=none;strokeWidth=2;strokeColor=#336600;" parent="1" vertex="1">
            <mxGeometry x="-930" y="-449.61" width="147" height="39.22" as="geometry" />
          </mxCell>
        </UserObject>
        <UserObject label="&lt;i&gt;&lt;font color=&quot;#000000&quot;&gt;Example University&lt;/font&gt;&lt;/i&gt;" id="I-3xDNqU13IutiKupr62-12">
          <mxCell style="rounded=0;whiteSpace=wrap;html=1;fontSize=16;fillColor=none;strokeWidth=2;" parent="1" vertex="1">
            <mxGeometry x="-510" y="-450" width="150" height="40" as="geometry" />
          </mxCell>
        </UserObject>
        <mxCell id="I-3xDNqU13IutiKupr62-27" value="" style="endArrow=classic;html=1;rounded=0;fontSize=12;startSize=8;endSize=8;curved=1;entryX=0;entryY=0.5;entryDx=0;entryDy=0;exitX=1;exitY=0.5;exitDx=0;exitDy=0;strokeWidth=2;fontStyle=2" parent="1" edge="1">
          <mxGeometry width="50" height="50" relative="1" as="geometry">
            <mxPoint x="-782.9999999999995" y="-430.0000000000002" as="sourcePoint" />
            <mxPoint x="-510" y="-430" as="targetPoint" />
          </mxGeometry>
        </mxCell>
        <mxCell id="I-3xDNqU13IutiKupr62-28" value="&amp;nbsp; alumniOf&amp;nbsp;&amp;nbsp;" style="edgeLabel;html=1;align=center;verticalAlign=middle;resizable=0;points=[];fontSize=16;" parent="I-3xDNqU13IutiKupr62-27" vertex="1" connectable="0">
          <mxGeometry x="0.1345" y="-2" relative="1" as="geometry">
            <mxPoint x="-10" y="-5" as="offset" />
          </mxGeometry>
        </mxCell>
        <UserObject label="&lt;i&gt;&lt;font color=&quot;#000000&quot;&gt;Sam&lt;/font&gt;&lt;/i&gt;" id="0RvG0JXg9gKrVT7jjSYo-1">
          <mxCell style="ellipse;whiteSpace=wrap;html=1;fontSize=16;fillColor=none;strokeWidth=2;strokeColor=#336600;" vertex="1" parent="1">
            <mxGeometry x="-750" y="-340" width="147" height="39.22" as="geometry" />
          </mxCell>
        </UserObject>
        <UserObject label="&lt;i&gt;&lt;font color=&quot;#000000&quot;&gt;Professor&lt;/font&gt;&lt;/i&gt;" id="0RvG0JXg9gKrVT7jjSYo-2">
          <mxCell style="rounded=0;whiteSpace=wrap;html=1;fontSize=16;fillColor=none;strokeWidth=2;" vertex="1" parent="1">
            <mxGeometry x="-440" y="-340.78" width="150" height="40" as="geometry" />
          </mxCell>
        </UserObject>
        <mxCell id="0RvG0JXg9gKrVT7jjSYo-3" value="" style="endArrow=classic;html=1;rounded=0;fontSize=12;startSize=8;endSize=8;curved=1;exitX=1;exitY=0.5;exitDx=0;exitDy=0;strokeWidth=2;fontStyle=2;entryX=0;entryY=0.5;entryDx=0;entryDy=0;" edge="1" parent="1" source="0RvG0JXg9gKrVT7jjSYo-1" target="0RvG0JXg9gKrVT7jjSYo-2">
          <mxGeometry width="50" height="50" relative="1" as="geometry">
            <mxPoint x="-584" y="-310" as="sourcePoint" />
            <mxPoint x="-460" y="-330" as="targetPoint" />
          </mxGeometry>
        </mxCell>
        <mxCell id="0RvG0JXg9gKrVT7jjSYo-4" value="&amp;nbsp; jobTitle&amp;nbsp;&amp;nbsp;" style="edgeLabel;html=1;align=center;verticalAlign=middle;resizable=0;points=[];fontSize=16;" vertex="1" connectable="0" parent="0RvG0JXg9gKrVT7jjSYo-3">
          <mxGeometry x="0.1345" y="-2" relative="1" as="geometry">
            <mxPoint x="-9" y="-5" as="offset" />
          </mxGeometry>
        </mxCell>
        <mxCell id="0RvG0JXg9gKrVT7jjSYo-5" value="" style="endArrow=classic;html=1;rounded=0;fontSize=12;startSize=8;endSize=8;curved=1;entryX=0;entryY=0.5;entryDx=0;entryDy=0;exitX=0.5;exitY=1;exitDx=0;exitDy=0;strokeWidth=2;fontStyle=2" edge="1" parent="1" source="I-3xDNqU13IutiKupr62-4" target="0RvG0JXg9gKrVT7jjSYo-1">
          <mxGeometry width="50" height="50" relative="1" as="geometry">
            <mxPoint x="-830" y="-250" as="sourcePoint" />
            <mxPoint x="-557" y="-250" as="targetPoint" />
          </mxGeometry>
        </mxCell>
        <mxCell id="0RvG0JXg9gKrVT7jjSYo-6" value="&amp;nbsp;knows&amp;nbsp;" style="edgeLabel;html=1;align=center;verticalAlign=middle;resizable=0;points=[];fontSize=16;" vertex="1" connectable="0" parent="0RvG0JXg9gKrVT7jjSYo-5">
          <mxGeometry x="0.1345" y="-2" relative="1" as="geometry">
            <mxPoint x="-1" y="-5" as="offset" />
          </mxGeometry>
        </mxCell>
      </root>
    </mxGraphModel>
  </diagram>
</mxfile>
